<?xml version="1.0" encoding="UTF-8"?>
<svg height="128px" viewBox="0 0 128 128" width="128px" xmlns="http://www.w3.org/2000/svg" xmlns:xlink="http://www.w3.org/1999/xlink">
    <linearGradient id="a" gradientTransform="matrix(0.196428 0 0 0.342105 3.274841 269.832413)" gradientUnits="userSpaceOnUse" x1="88.595886" x2="536.595886" y1="-449.394012" y2="-449.394012">
        <stop offset="0" stop-color="#77767b"/>
        <stop offset="0.0500001" stop-color="#c0bfbc"/>
        <stop offset="0.099807" stop-color="#9a9996"/>
        <stop offset="0.900001" stop-color="#9a9996"/>
        <stop offset="0.950001" stop-color="#c0bfbc"/>
        <stop offset="1" stop-color="#77767b"/>
    </linearGradient>
    <path d="m 35.023438 37.960938 h 32.617187 c 1.503906 0 2.71875 1.21875 2.71875 2.71875 v 23.105468 c 0 1.5 -1.214844 2.71875 -2.71875 2.71875 h -32.617187 c -1.5 0 -2.71875 -1.21875 -2.71875 -2.71875 v -23.105468 c 0 -1.5 1.21875 -2.71875 2.71875 -2.71875 z m 0 0" fill="#ffffff"/>
    <path d="m 28.675781 12.09375 h 72 c 4.421875 0 8 3.582031 8 8 v 88 c 0 4.417969 -3.578125 8 -8 8 h -72 c -4.417969 0 -8 -3.582031 -8 -8 v -88 c 0 -4.417969 3.582031 -8 8 -8 z m 0 0" fill="url(#a)"/>
    <path d="m 28.675781 4.09375 h 72 c 4.421875 0 8 3.582031 8 8 v 92 c 0 4.417969 -3.578125 8 -8 8 h -72 c -4.417969 0 -8 -3.582031 -8 -8 v -92 c 0 -4.417969 3.582031 -8 8 -8 z m 0 0" fill="#deddda"/>
    <path d="m 30.726562 8.625 h 67.375 c 3.101563 0 5.617188 3.695312 5.617188 8.257812 v 70.203126 c 0 4.558593 -2.515625 8.257812 -5.617188 8.257812 h -67.375 c -3.101562 0 -5.613281 -3.699219 -5.613281 -8.257812 v -70.203126 c 0 -4.5625 2.511719 -8.257812 5.613281 -8.257812 z m 0 0" fill="#87cdde"/>
    <path d="m 32.460938 17.980469 h 26.34375 c 1.214843 0 2.199218 1.410156 2.199218 3.148437 v 26.769532 c 0 1.738281 -0.984375 3.148437 -2.199218 3.148437 h -26.34375 c -1.214844 0 -2.195313 -1.410156 -2.195313 -3.148437 v -26.769532 c 0 -1.738281 0.980469 -3.148437 2.195313 -3.148437 z m 0 0" fill="#afdde9"/>
    <path d="m 69.222656 18.007812 h 26.484375 c 1.222657 0 2.210938 1.402344 2.210938 3.132813 v 26.613281 c 0 1.730469 -0.988281 3.128906 -2.210938 3.128906 h -26.484375 c -1.222656 0 -2.210937 -1.398437 -2.210937 -3.128906 v -26.613281 c 0 -1.730469 0.988281 -3.132813 2.210937 -3.132813 z m 0 0" fill="#afdde9"/>
    <g fill="#3584e4" stroke="#000000" stroke-opacity="0.094738" stroke-width="0.99999955517">
        <path d="m 39.98046971098 19.70312531416 s -1.83984448945 -0.06640607758 -3.82421728489 0.92578233437 c -1.96484695162 0.99218438351 -4.23437695097 3.77734236869 -4.23437695097 7.12890693416 v 12.08593737961 h 8.05859423587 v -12.08593737961 h 12.08593737961 v -8.05468926852 z m 36.25390455299 0 v 8.05468926852 h 12.08593737961 v 12.08593737961 h 8.05859411501 v -12.08593737961 c 0 -3.35156456546 -2.26562632111 -6.13672255065 -4.24999911656 -7.12890693416 c -1.96484292318 -0.99218841194 -3.80859499845 -0.92578233437 -3.80859499845 -0.92578233437 z m -44.31249878886 44.31250140734 v 12.08202979378 c 0 3.35546812286 2.26952999936 6.14062610804 4.23437695097 7.12890693415 c 1.98437279545 0.99218438351 3.82421728489 0.92968718086 3.82421728489 0.92968718086 h 12.08593737961 v -8.05859411501 h -12.08593737961 v -12.08202979378 z m 56.39843616846 0 v 12.08202979378 h -12.08593737961 v 8.05859411501 h 12.08593737961 s 1.84375207528 0.06249720265 3.80859499845 -0.92968718086 c 1.98437279545 -0.98828082611 4.24999911656 -3.7734388113 4.24999911656 -7.12890693415 v -12.08202979378 z m 0 0"/>
        <path d="m 48.03906382599 39.84375196229 h 12.08202979378 v 4.02734326459 h -12.08202979378 z m 0 0"/>
        <path d="m 68.17968773478 39.84375196229 h 12.08593737961 v 4.02734326459 h -12.08593737961 z m 0 0"/>
        <path d="m 46.82421956208 63.36718903787 c 8.74999912902 6.6406238714 26.18750018442 6.53124772411 34.66796854527 -0.01562631488 c 0.56640658028 -0.42187424584 0.86718594977 -1.14843947544 0.76953255998 -1.85547080433 c -0.09375386085 -0.70703132889 -0.56640658028 -1.32030879693 -1.22656299296 -1.60546587999 c -0.67578272757 -0.26562721078 -1.42968897266 -0.15625106349 -1.99609555294 0.28515708305 c -3.33593825058 2.56249810478 -9.03515621208 4.08984046724 -14.77734150394 4.10546678212 c -5.74609690614 0.01562631488 -11.50390851289 -1.48046744626 -15.0117201134 -4.121093097 c -0.88281226465 -0.67968628496 -2.14062385894 -0.50390534919 -2.81640658651 0.39062564451 c -0.67968628496 0.88281226465 -0.50390534919 2.14062385894 0.39062564451 2.81640658651 z m 0 0"/>
    </g>
</svg>
